<?xml version="1.0" standalone="no"?>
<!DOCTYPE svg PUBLIC "-//W3C//DTD SVG 20010904//EN"
 "http://www.w3.org/TR/2001/REC-SVG-20010904/DTD/svg10.dtd">
<svg version="1.0" xmlns="http://www.w3.org/2000/svg"
 width="345.000000pt" height="342.000000pt" viewBox="0 0 345.000000 342.000000"
 preserveAspectRatio="xMidYMid meet">

<g transform="translate(0.000000,342.000000) scale(0.100000,-0.100000)"
fill="#000000" stroke="none">
<path d="M20 3045 l0 -365 360 0 360 0 0 365 0 365 -360 0 -360 0 0 -365z
m618 2 l2 -257 -257 2 -258 3 -2 237 c-1 131 0 245 3 253 5 12 43 15 238 18
127 1 240 3 251 2 19 0 20 -8 23 -258z"/>
<path d="M220 3045 l0 -155 155 0 155 0 0 155 0 155 -155 0 -155 0 0 -155z"/>
<path d="M957 3403 c-4 -3 -7 -73 -7 -155 l0 -148 50 0 50 0 0 -55 0 -55 -50
0 -50 0 0 -50 0 -50 -50 0 -50 0 0 -105 0 -105 50 0 50 0 0 -50 0 -50 -50 0
-50 0 0 -50 0 -50 -55 0 -55 0 0 50 0 50 -105 0 -105 0 0 -50 0 -50 -45 0 -45
0 0 50 0 50 -55 0 -55 0 0 -50 0 -51 -102 3 -103 3 0 48 0 47 -52 0 -53 0 0
-105 0 -105 100 0 100 0 0 -50 0 -50 -100 0 -100 0 0 -155 0 -155 53 0 52 0
-2 -102 c-1 -57 -3 -106 -3 -110 0 -5 -22 -8 -50 -8 l-50 0 0 -100 0 -100 100
0 100 0 0 55 0 55 55 0 55 0 0 -160 0 -160 -55 0 -55 0 0 55 0 55 -100 0 -100
0 0 -55 0 -55 100 0 100 0 0 -50 0 -50 -44 0 c-48 0 -56 -9 -56 -66 l0 -34
-50 0 -50 0 0 -55 0 -55 54 0 54 0 -2 -55 -1 -55 -52 0 -53 0 0 -45 0 -45 53
0 52 0 0 42 0 43 48 3 47 3 0 -45 0 -46 155 0 155 0 0 45 0 45 -45 0 -45 0 0
110 0 110 -55 0 -55 0 0 50 0 50 55 0 55 0 0 105 0 105 150 0 150 0 0 -55 0
-54 -102 -3 -103 -3 0 -45 0 -45 103 -3 102 -3 0 51 0 50 55 0 55 0 0 -100 0
-100 49 0 50 0 3 48 3 47 48 3 47 3 0 -105 0 -106 -50 0 -50 0 0 -100 0 -100
-50 0 -50 0 0 100 0 100 -55 0 -55 0 0 55 0 55 -105 0 -106 0 3 -107 3 -108
53 -3 52 -3 0 -45 0 -44 105 0 105 0 0 -55 0 -55 99 0 100 0 3 -52 3 -53 52 0
53 0 0 108 0 107 -55 0 -55 0 0 100 0 100 54 0 55 0 3 -52 3 -53 53 -3 52 -3
0 -152 0 -153 45 1 45 1 0 -54 0 -54 -45 4 -45 3 0 -52 0 -53 -55 0 -55 0 0
53 0 52 -55 -3 -55 -4 0 -49 0 -49 -100 0 -100 0 0 -50 0 -50 50 0 50 0 0 -55
0 -55 105 0 105 0 0 -55 c0 -30 3 -54 8 -54 4 1 28 1 55 0 l47 -1 0 -40 0 -40
100 0 100 0 0 40 c0 44 -6 42 100 41 30 0 67 2 83 5 25 5 27 9 27 55 l0 49
100 0 100 0 0 -55 0 -55 -50 0 -50 0 0 -40 0 -40 105 0 105 0 0 95 0 95 -55 0
-55 0 0 55 0 55 55 0 55 0 0 50 0 50 55 0 55 0 0 -200 0 -200 155 0 155 0 0
40 0 40 50 0 50 0 0 -40 0 -40 50 0 50 0 0 150 0 150 55 0 55 0 0 -55 0 -55
50 0 50 0 0 -95 0 -95 100 0 100 0 0 40 0 39 158 3 157 3 0 50 0 50 -202 3
-203 2 0 55 0 55 -55 0 -55 0 0 50 0 50 155 0 155 0 0 -50 0 -49 103 -3 102
-3 3 -52 3 -53 50 0 49 0 0 105 0 105 -155 0 -155 0 0 155 0 155 55 0 55 0 0
55 0 55 100 0 100 0 0 155 0 155 -50 0 c-48 0 -50 1 -50 28 0 61 -9 72 -56 72
l-44 0 0 50 0 50 -55 0 -55 0 0 55 0 55 55 0 55 0 0 50 0 50 -55 0 -55 0 0 55
0 56 103 -3 102 -3 2 -155 2 -155 50 -3 51 -3 0 205 0 206 -49 0 -50 0 -3 53
-3 52 -102 3 -103 3 0 54 0 55 56 0 55 0 -3 48 -3 47 -107 3 -108 3 0 104 0
105 55 0 55 0 0 105 0 105 -100 0 -100 0 -1 28 c-1 15 -1 37 -1 50 1 20 -3 22
-53 22 l-55 0 0 -105 0 -105 100 0 100 0 0 -50 0 -50 -48 0 -47 0 0 -52 0 -53
-52 -3 -53 -3 0 55 0 56 -50 0 -50 0 0 155 0 155 -55 0 -55 0 0 105 0 105 -50
0 -50 0 0 44 c0 48 -9 56 -66 56 l-34 0 0 -50 0 -50 -55 0 -55 0 0 50 0 50
-55 0 -55 0 0 50 0 50 55 0 55 0 0 55 0 55 55 0 55 0 0 -55 0 -55 50 0 50 0 0
-50 0 -50 50 0 50 0 0 105 0 105 -50 0 -50 0 0 100 0 100 50 0 50 0 0 55 0 55
-50 0 -50 0 0 -50 c0 -33 -4 -50 -12 -51 -7 0 -30 -2 -50 -5 l-38 -5 0 56 0
55 -55 0 -55 0 0 -50 c0 -49 1 -50 30 -51 80 -4 75 0 78 -56 l3 -53 -155 0
-156 0 0 -50 0 -50 45 0 45 0 0 -55 0 -55 -100 0 -100 0 0 -49 0 -50 53 -3 52
-3 3 -102 3 -103 -56 0 -55 0 0 55 0 55 -55 0 -55 0 0 -55 0 -55 -50 0 -50 0
0 55 0 55 -50 0 -50 0 0 -55 0 -55 50 0 50 0 0 -50 0 -50 -100 0 -100 0 0 -50
0 -50 150 0 150 0 0 -105 0 -105 55 0 55 0 0 -55 0 -55 100 0 100 0 0 -100 0
-100 55 0 55 0 0 -55 0 -55 -55 0 -55 0 0 -100 0 -100 -155 0 -155 0 0 100 0
100 55 0 55 0 0 -56 0 -55 53 3 52 3 3 53 3 52 -55 0 -56 0 0 55 0 55 -105 0
-105 0 0 155 0 155 -50 0 -50 0 0 -55 0 -55 -50 0 -50 0 0 55 0 55 -55 0 -55
0 0 -55 0 -55 55 0 55 0 0 -100 0 -100 -55 0 -55 0 0 -55 0 -55 -100 0 -100 0
0 -55 0 -55 205 0 205 0 0 -45 0 -45 100 0 100 0 0 -55 0 -55 -50 0 -50 0 0
-50 0 -50 50 0 50 0 0 -55 0 -55 -50 0 -50 0 0 -50 0 -50 -50 0 -50 0 0 -50 0
-50 50 0 50 0 0 -55 0 -55 105 0 105 0 0 -55 0 -55 -205 0 -205 0 0 -45 0 -45
-55 0 -55 0 0 -55 0 -55 -55 0 -55 0 0 100 0 100 55 0 55 0 0 160 0 160 55 0
55 0 0 50 0 50 -55 0 -55 0 0 55 0 55 105 0 105 0 0 50 0 50 -50 0 -50 0 0 55
0 55 -55 0 -55 0 0 -55 0 -55 -55 0 -55 0 0 -50 0 -50 -45 0 -45 0 0 50 0 50
-55 0 -55 0 0 210 0 210 55 0 55 0 0 50 0 50 45 0 45 0 0 105 0 105 -45 0 -45
0 0 50 0 50 -55 0 -55 0 0 55 0 55 100 0 100 0 0 50 0 50 55 0 55 0 0 50 0 50
55 0 55 0 0 55 0 55 -55 0 -55 0 0 155 0 155 55 0 55 0 0 -54 0 -55 48 -3 47
-3 3 -47 3 -48 50 0 49 0 0 50 0 50 50 0 50 0 0 55 0 55 55 0 55 0 0 50 0 50
-54 0 -55 0 -3 53 -3 52 -35 1 c-60 1 -60 1 -60 54 l0 50 -100 0 -100 0 0
-105 0 -105 -55 0 -55 0 0 -50 0 -50 -155 0 -155 0 0 50 0 50 55 0 55 0 0 105
0 105 -153 0 c-85 0 -157 -3 -160 -7z m203 -154 l0 -49 -55 0 -55 0 0 49 c0
47 2 50 28 53 15 2 39 1 55 -1 25 -3 27 -6 27 -52z m620 -154 l0 -105 -52 0
-53 0 3 105 3 105 50 0 49 0 0 -105z m-510 -155 l0 -50 45 0 45 0 0 -50 0 -50
55 0 55 0 0 -55 0 -55 -55 0 -55 0 0 55 0 55 -45 0 -45 0 0 -105 0 -105 -110
0 -110 0 0 50 0 50 -50 0 -50 0 0 55 0 55 50 0 50 0 0 100 0 100 110 0 110 0
0 -50z m1030 -205 l0 -55 -55 0 -55 0 0 55 0 55 55 0 55 0 0 -55z m210 0 l0
-55 -50 0 -50 0 0 55 0 55 50 0 50 0 0 -55z m-210 -205 l0 -50 55 0 55 0 0 50
0 50 100 0 100 0 0 -105 0 -105 -100 0 -100 0 0 -50 0 -50 100 0 100 0 0 -104
0 -105 53 -3 52 -3 3 -47 3 -48 50 0 49 0 0 -110 0 -110 -50 0 -50 0 0 -100 0
-100 -105 0 -105 0 0 -50 0 -50 155 0 155 0 0 49 0 50 53 3 c32 2 52 8 53 16
1 6 2 50 3 97 l1 85 45 0 45 0 0 55 0 55 55 0 55 0 0 -55 0 -55 -55 0 -55 0 0
-100 0 -100 55 0 55 0 0 -50 0 -50 -55 0 -55 0 0 -105 0 -105 110 0 110 0 0
-104 0 -105 48 -3 47 -3 0 -50 0 -50 -47 -3 -48 -3 0 -45 0 -44 -110 0 -110 0
0 45 0 45 -45 0 -45 0 0 55 0 55 -55 0 -55 0 0 55 0 55 -50 0 -50 0 0 50 0 50
-55 0 -55 0 0 50 0 50 -50 0 -50 0 0 -100 0 -100 -105 0 -105 0 0 -55 0 -55
-55 0 -55 0 0 55 0 55 -45 0 -45 0 0 50 0 50 -55 0 -55 0 0 -50 0 -50 -55 0
-55 0 0 50 0 50 55 0 55 0 0 155 0 155 55 0 55 0 0 -50 0 -50 44 0 45 0 3 -52
3 -53 53 -3 52 -3 0 55 0 56 55 0 55 0 0 50 0 50 -55 0 -55 0 0 155 0 155 55
0 55 0 0 -100 0 -100 50 0 50 0 0 45 0 45 105 0 105 0 0 55 0 55 -55 0 -55 0
0 105 0 105 -100 0 -100 0 0 -50 0 -50 -55 0 -55 0 0 100 0 100 -55 0 -55 0 0
55 0 55 -45 0 -45 0 0 50 0 50 -55 0 -55 0 0 105 0 105 155 0 155 0 0 -50z
m-1860 -105 l0 -55 100 0 100 0 0 55 0 55 50 0 50 0 0 -55 0 -55 -50 0 -50 0
0 -50 0 -50 105 0 105 0 0 -55 0 -55 155 0 155 0 0 55 0 55 -55 0 -55 0 0 50
0 50 -51 0 -50 0 3 53 3 52 48 3 47 3 0 -55 0 -56 55 0 55 0 0 -50 0 -50 55 0
55 0 0 -105 0 -105 -110 0 -110 0 0 -49 0 -50 -47 -3 -48 -3 0 -105 0 -105 48
-3 47 -3 0 -44 0 -44 -47 -3 -48 -3 -3 -52 -3 -53 105 0 106 0 0 -50 0 -50 55
0 55 0 0 -55 0 -55 45 0 45 0 0 -210 0 -210 -45 0 -45 0 0 55 0 55 -55 0 -55
0 0 55 0 55 55 0 55 0 0 50 0 50 -110 0 -110 0 0 49 0 50 -47 3 -48 3 -3 103
-3 102 -49 0 -50 0 0 -50 0 -50 -55 0 -55 0 0 50 0 50 -50 0 -50 0 0 55 0 55
50 0 50 0 0 45 0 45 -50 0 -50 0 0 55 0 55 50 0 50 0 0 55 0 55 -99 0 c-81 0
-100 -3 -105 -16 -3 -9 -6 -58 -6 -110 l0 -94 -45 0 -45 0 0 -45 0 -45 -55 0
-55 0 0 45 0 45 -55 0 -55 0 0 -46 0 -45 -47 3 -48 3 -3 43 -3 42 50 0 51 0 0
110 0 110 55 0 55 0 0 -110 0 -110 55 0 55 0 0 160 0 160 150 0 150 0 0 -50 0
-50 55 0 55 0 0 100 0 100 -105 0 -105 0 0 55 0 55 -56 0 c-47 0 -55 -3 -53
-17 1 -10 1 -35 0 -55 l-1 -38 -155 0 -155 0 0 55 0 55 110 0 110 0 0 50 0 50
-55 0 -55 0 0 55 0 55 55 0 55 0 0 -55z m2380 -315 l0 -50 -50 0 -50 0 0 50 0
50 50 0 50 0 0 -50z m-1142 -205 l-3 -55 53 0 52 0 0 -55 0 -55 -49 0 -50 0
-3 53 -3 52 -47 3 -48 3 0 55 0 54 51 0 51 0 -4 -55z m-938 -940 l0 -55 -50 0
-50 0 0 55 0 55 50 0 50 0 0 -55z m1770 -45 l0 -100 -50 0 -51 0 3 -107 3
-108 25 3 c14 1 35 0 48 -3 21 -5 22 -10 22 -105 l0 -100 50 0 50 0 0 -50 0
-50 -50 0 -50 0 0 -55 0 -55 -50 0 -50 0 0 55 0 55 -55 0 -55 0 0 -55 0 -55
-55 0 -55 0 0 55 0 55 55 0 55 0 0 50 0 50 -99 0 -100 0 -3 51 -3 51 -108 1
-107 2 0 -52 0 -53 -50 0 -50 0 0 -50 0 -50 -50 0 -50 0 0 -55 0 -55 -105 0
-105 0 0 55 0 55 -55 0 -55 0 0 50 0 50 55 0 55 0 0 155 0 155 55 0 55 0 0 55
0 55 205 0 205 0 0 -55 0 -55 55 0 55 0 0 55 0 55 45 0 45 0 0 -55 0 -55 55 0
55 0 0 100 0 100 55 0 55 0 0 55 0 55 50 0 50 0 0 -100z m210 44 l0 -55 -52 3
-53 3 -3 53 -3 52 55 0 56 0 0 -56z m208 -301 l-3 -158 -155 0 -155 0 -3 158
-3 157 161 0 161 0 -3 -157z m-1768 -313 l0 -50 -55 0 -55 0 0 50 0 50 55 0
55 0 0 -50z"/>
<path d="M1160 2840 l0 -50 -55 0 -55 0 0 -55 0 -55 55 0 55 0 0 55 0 55 55 0
55 0 0 50 0 50 -55 0 -55 0 0 -50z"/>
<path d="M2100 2425 l0 -55 100 0 100 0 0 55 0 55 -100 0 -100 0 0 -55z"/>
<path d="M2928 1490 l4 -50 -56 0 -56 0 0 -56 0 -55 53 3 52 3 3 53 3 52 45 0
44 0 0 50 0 50 -48 0 -49 0 5 -50z"/>
<path d="M2300 1280 l0 -50 55 0 55 0 0 50 0 50 -55 0 -55 0 0 -50z"/>
<path d="M2820 1181 l0 -51 56 0 55 0 -3 48 -3 47 -52 3 -53 3 0 -50z"/>
<path d="M3022 968 l3 -53 53 -3 52 -3 0 55 0 56 -56 0 -55 0 3 -52z"/>
<path d="M740 1795 l0 -55 55 0 55 0 0 55 0 55 -55 0 -55 0 0 -55z"/>
<path d="M1050 1385 l0 -55 55 0 55 0 0 55 0 55 -55 0 -55 0 0 -55z"/>
<path d="M1780 656 l0 -53 -97 -1 -98 0 -3 -51 -3 -51 50 0 51 0 0 -50 0 -50
50 0 50 0 0 49 0 50 48 3 47 3 3 103 3 102 -51 0 -50 0 0 -54z"/>
<path d="M2100 660 c0 -45 2 -50 23 -50 12 0 32 -3 45 -6 21 -6 22 -4 22 50
l0 56 -45 0 -45 0 0 -50z"/>
<path d="M2300 453 l0 -53 55 0 55 0 0 53 0 52 -55 0 -55 0 0 -52z"/>
<path d="M1470 350 l0 -50 55 0 55 0 0 50 0 50 -55 0 -55 0 0 -50z"/>
<path d="M2722 658 c3 -53 3 -53 36 -52 64 2 62 1 62 54 l0 50 -51 0 -50 0 3
-52z"/>
<path d="M1880 3361 c0 -53 10 -63 60 -57 14 2 31 4 38 5 8 1 12 18 12 51 l0
50 -55 0 -55 0 0 -49z"/>
<path d="M2100 3357 c0 -48 2 -53 23 -54 58 -3 67 4 67 57 l0 50 -45 0 -45 0
0 -53z"/>
<path d="M2720 3045 l0 -365 360 0 360 0 0 365 0 365 -360 0 -360 0 0 -365z
m612 250 c4 -5 8 -121 8 -257 l0 -248 -260 0 -260 0 0 258 0 257 252 0 c157 0
256 -4 260 -10z"/>
<path d="M2930 3045 l0 -155 155 0 155 0 0 155 0 155 -155 0 -155 0 0 -155z"/>
<path d="M3240 2426 l0 -56 51 0 50 0 -3 53 -3 52 -47 3 -48 3 0 -55z"/>
<path d="M3240 2215 l0 -56 48 3 47 3 0 50 0 50 -47 3 -48 3 0 -56z"/>
<path d="M3335 2123 c2 -21 4 -44 4 -50 1 -9 18 -13 51 -13 l50 0 0 50 0 50
-54 0 -54 0 3 -37z"/>
<path d="M20 355 l0 -355 360 0 360 0 0 355 0 355 -360 0 -360 0 0 -355z m618
-5 c2 -192 -1 -255 -10 -261 -7 -4 -121 -8 -254 -9 -213 0 -242 1 -248 16 -3
8 -6 125 -6 260 l0 244 238 2 c130 2 246 3 257 2 19 -1 20 -9 23 -254z"/>
<path d="M220 348 l0 -158 155 0 155 0 0 155 0 154 -155 3 -155 3 0 -157z"/>
<path d="M854 601 c-2 -2 -4 -26 -4 -53 l0 -48 51 0 50 0 -3 52 -3 53 -43 0
c-24 0 -45 -2 -48 -4z"/>
<path d="M993 82 l-143 -3 0 -39 0 -40 156 0 155 0 -3 42 c-2 23 -7 42 -13 42
-5 1 -74 0 -152 -2z"/>
</g>
</svg>
