<?xml version="1.0" standalone="no"?>
<!DOCTYPE svg PUBLIC "-//W3C//DTD SVG 20010904//EN"
 "http://www.w3.org/TR/2001/REC-SVG-20010904/DTD/svg10.dtd">
<svg version="1.0" xmlns="http://www.w3.org/2000/svg"
 width="257.000000pt" height="257.000000pt" viewBox="0 0 257.000000 257.000000"
 preserveAspectRatio="xMidYMid meet">

<g transform="translate(0.000000,257.000000) scale(0.100000,-0.100000)"
fill="#000000" stroke="none">
<path d="M20 2280 l0 -270 270 0 270 0 0 270 0 270 -270 0 -270 0 0 -270z
m460 -5 l0 -195 -193 2 -192 3 -3 193 -2 192 195 0 195 0 0 -195z"/>
<path d="M188 2392 c-16 -3 -18 -17 -18 -118 l0 -114 115 0 115 0 0 119 0 120
-97 -1 c-54 -1 -106 -3 -115 -6z"/>
<path d="M630 2475 l0 -75 40 0 c39 0 40 1 40 35 0 34 1 35 40 35 40 0 40 0
40 -37 l0 -38 75 3 75 3 0 -40 0 -40 118 -3 117 -3 1 -35 c0 -33 2 -35 37 -38
36 -3 37 -4 37 -43 0 -38 -1 -39 -35 -39 -36 0 -39 -3 -35 -53 2 -27 0 -29
-37 -25 l-38 3 -3 -78 -3 -77 -39 0 -40 0 0 75 0 75 40 0 40 0 0 40 0 40 -40
0 -40 0 0 -40 0 -40 -40 0 -40 0 0 80 0 80 -34 0 c-31 0 -34 2 -40 40 l-6 41
-113 -3 -112 -3 -3 -37 -3 -38 41 0 41 0 -3 -77 -3 -78 -37 -3 -38 -3 0 -75 0
-74 -116 0 -115 0 3 -37 3 -38 78 -3 77 -3 0 -34 0 -35 -80 0 -80 0 0 35 c0
33 -2 35 -35 35 -34 0 -35 1 -35 40 l0 40 -80 0 -80 0 0 -75 0 -75 -40 0 -40
0 0 75 0 75 -35 0 -35 0 0 -115 0 -115 35 0 35 0 0 -80 0 -80 -35 0 -35 0 0
-115 0 -115 35 0 35 0 0 115 0 115 40 0 40 0 0 80 0 80 80 0 81 0 -3 -77 -3
-78 -38 -3 -37 -3 0 -115 0 -114 -40 0 c-39 0 -40 -1 -40 -34 0 -33 -2 -35
-38 -38 -35 -3 -37 -5 -40 -41 -3 -35 -5 -37 -38 -37 -33 0 -34 -1 -34 -40 0
-39 1 -40 35 -40 34 0 35 -1 35 -40 0 -39 -1 -40 -35 -40 l-35 0 0 -75 0 -75
115 0 115 0 0 -40 0 -40 -80 0 -80 0 0 -40 c0 -39 -1 -40 -35 -40 -33 0 -35
-2 -35 -35 0 -33 2 -35 35 -35 33 0 35 2 35 35 l0 35 80 0 80 0 0 -36 c0 -35
1 -35 38 -32 l37 3 3 113 3 112 34 0 c34 0 35 1 35 40 l0 40 80 0 80 0 0 35
c0 33 2 35 35 35 34 0 35 1 35 40 0 39 -1 40 -35 40 -34 0 -35 1 -35 40 0 39
1 40 35 40 l35 0 0 115 0 115 -35 0 c-34 0 -35 1 -35 40 l0 39 152 3 153 3 0
30 0 30 -77 3 -78 3 0 79 0 80 40 0 40 0 0 75 0 75 -40 0 -40 0 0 -75 0 -75
-75 0 -75 0 0 40 c0 39 1 40 35 40 l35 0 0 75 0 75 40 0 40 0 0 75 0 75 40 0
40 0 0 -74 0 -75 37 -3 37 -3 2 -150 1 -150 36 -3 c33 -3 36 -6 39 -40 3 -35
5 -37 41 -40 l37 -3 0 40 0 41 -40 0 -40 0 0 115 0 115 40 0 40 0 0 -75 0 -75
40 0 40 0 0 75 0 75 39 0 39 0 1 -115 2 -115 -41 0 -40 0 0 -75 0 -74 -77 -3
-78 -3 -3 -37 -3 -38 40 0 41 0 0 -75 0 -75 -40 0 c-39 0 -40 1 -40 34 0 33
-2 35 -37 38 -33 3 -38 7 -39 28 -2 48 -4 50 -39 50 -34 0 -35 -1 -35 -40 l0
-40 -40 0 -40 0 0 -115 0 -115 40 0 c40 0 40 0 40 39 0 39 1 40 38 43 35 3 37
5 37 37 0 33 2 35 38 39 l37 3 0 -40 c0 -41 0 -41 -39 -41 -37 0 -38 -1 -36
-32 2 -18 3 -36 4 -40 0 -5 35 -8 76 -8 l75 0 0 40 0 40 40 0 40 0 0 -80 0
-80 -40 0 c-39 0 -40 -1 -40 -35 0 -34 1 -35 40 -35 l40 0 0 -80 0 -80 -40 0
-40 0 0 -155 0 -155 -40 0 -40 0 0 80 0 80 -38 0 -38 0 1 -77 0 -78 -37 -3
-38 -3 0 -75 0 -74 34 0 c39 0 43 -7 41 -70 -3 -93 -2 -90 -40 -90 -34 0 -35
1 -35 40 l0 40 -40 0 -40 0 0 41 0 40 -37 -3 -38 -3 0 -75 0 -75 38 -3 c35 -3
37 -5 37 -38 0 -25 -4 -34 -17 -35 -59 -4 -58 -3 -61 -42 l-3 -37 155 0 156 0
0 75 0 75 40 0 c39 0 40 -1 40 -34 0 -29 4 -34 31 -40 41 -8 49 -2 49 40 0 33
-1 34 -40 34 l-40 0 0 40 0 40 -40 0 -40 0 0 80 0 80 40 0 40 0 0 -40 0 -40
40 0 40 0 0 40 c0 40 0 40 38 40 l38 0 3 75 2 75 -40 0 -41 0 0 40 0 40 41 0
41 0 -4 -38 c-3 -36 -2 -37 35 -40 l37 -3 0 40 c0 40 -1 41 -35 41 -33 0 -35
2 -35 35 0 33 2 35 35 35 l35 0 0 80 0 80 75 0 75 0 0 -40 c0 -39 -1 -40 -35
-40 l-35 0 0 -75 0 -75 35 0 c26 0 35 -4 37 -17 4 -57 4 -58 -34 -61 -35 -3
-37 -5 -40 -40 -3 -35 -5 -37 -40 -40 l-38 -3 0 -115 0 -114 -35 0 c-34 0 -35
-1 -35 -40 l0 -40 75 0 75 0 0 -75 0 -75 75 0 75 0 0 33 c0 42 2 44 45 39 32
-4 35 -7 35 -38 l0 -34 115 0 115 0 0 40 0 39 38 -3 c35 -3 37 -6 40 -40 3
-35 5 -36 43 -36 39 0 39 0 39 38 0 37 1 38 35 37 34 -2 35 -1 35 37 0 37 -1
38 -35 38 -34 0 -35 1 -35 40 0 39 1 40 35 40 34 0 35 1 35 40 l0 40 40 0 40
0 0 -40 0 -40 40 0 40 0 0 -40 c0 -39 1 -40 34 -40 33 0 35 -2 38 -37 3 -36 5
-38 38 -38 33 0 35 2 38 38 3 36 4 37 43 37 l40 0 -3 -37 c-3 -36 -5 -38 -38
-38 -33 0 -35 -2 -38 -37 l-3 -38 80 0 80 0 3 38 c3 34 6 37 36 40 29 3 32 6
32 38 l0 34 -75 0 -75 0 0 40 0 40 40 0 40 0 0 40 c0 39 1 40 35 40 34 0 35 1
35 41 0 41 0 41 -35 37 -35 -4 -35 -4 -35 34 0 38 0 38 -40 38 l-40 0 0 40 0
40 75 0 75 0 0 40 c0 39 -1 40 -35 40 -33 0 -35 2 -35 35 l0 35 -80 0 -80 0 0
-35 c0 -34 -1 -35 -40 -35 l-40 0 0 75 0 75 80 0 80 0 0 80 0 80 75 0 75 0 0
75 0 75 -35 0 c-34 0 -35 1 -35 40 l0 40 -80 0 -80 0 0 41 0 41 -75 -4 -75 -3
0 38 0 37 115 0 115 0 0 40 0 40 40 0 40 0 0 40 c0 39 1 40 35 40 l35 0 0 115
0 115 -34 0 c-33 0 -35 2 -38 38 -3 35 -5 37 -40 40 -36 3 -38 5 -38 38 l0 34
75 0 75 0 0 40 0 40 -75 0 -75 0 0 -40 0 -40 -40 0 -40 0 0 40 0 40 -41 0 -40
0 3 -37 c3 -36 5 -38 41 -41 l37 -3 0 -75 0 -74 40 0 40 0 0 -40 0 -40 40 0
40 0 0 -75 0 -75 -40 0 c-39 0 -40 1 -40 35 0 34 -1 35 -40 35 -39 0 -40 -1
-40 -35 0 -34 -1 -35 -40 -35 -39 0 -40 1 -40 35 0 33 -2 35 -35 35 -34 0 -35
1 -35 40 0 39 1 40 35 40 l35 0 0 80 0 80 -35 0 c-34 0 -35 -1 -35 -40 l0 -40
-40 0 -40 0 0 40 0 40 -40 0 -40 0 0 -40 c0 -39 -1 -40 -35 -40 -34 0 -35 -1
-35 -40 0 -39 1 -40 35 -40 34 0 35 1 35 40 l0 40 40 0 40 0 0 -80 0 -80 -40
0 c-39 0 -40 -1 -40 -35 0 -33 -2 -35 -35 -35 -33 0 -35 2 -35 35 l0 35 -120
0 -120 0 0 40 c0 39 -1 40 -35 40 -34 0 -35 -1 -35 -40 0 -39 1 -40 35 -40
l35 0 1 -60 c1 -33 2 -66 3 -72 0 -7 18 -14 39 -16 l37 -3 0 -75 0 -74 -34 0
c-41 0 -44 7 -41 88 l3 62 -39 0 -39 0 0 -75 0 -75 35 0 c33 0 35 -2 36 -32 1
-18 1 -36 0 -41 0 -4 17 -7 38 -7 39 0 40 1 43 38 l3 37 190 0 190 0 3 -37 3
-38 -155 0 -156 0 0 -40 0 -40 75 0 75 0 0 -40 0 -40 -115 0 -115 0 0 -35 c0
-34 1 -35 40 -35 l40 0 0 -80 0 -80 -40 0 -40 0 0 41 0 40 -37 -3 c-36 -3 -38
-5 -38 -38 0 -33 2 -35 38 -38 36 -3 37 -4 37 -43 0 -39 0 -39 -39 -39 l-39 0
0 -57 c-1 -98 1 -93 -37 -93 l-35 0 0 115 0 115 -80 0 -80 0 0 80 0 80 40 0
c39 0 40 1 40 34 0 33 2 35 38 38 35 3 37 5 40 40 3 35 5 37 40 40 35 3 37 5
37 38 0 33 -2 35 -38 38 l-37 3 0 -40 c0 -41 0 -41 -39 -41 -39 0 -40 -1 -43
-38 -3 -35 -5 -37 -40 -40 -36 -3 -38 -5 -38 -38 l0 -34 -75 0 -75 0 0 35 c0
33 2 35 35 35 33 0 35 2 36 33 1 17 1 35 0 40 0 4 17 7 39 7 40 0 40 0 40 40
l0 40 41 0 40 0 -3 38 c-3 35 -5 37 -40 40 l-38 3 0 75 0 74 40 0 40 0 0 75 0
75 -75 0 c-41 0 -75 1 -75 3 -1 1 -3 19 -6 40 l-6 37 81 0 81 0 0 40 0 40 -40
0 -40 0 0 40 0 41 78 -3 77 -3 3 -37 3 -38 75 0 74 0 0 40 0 40 80 0 80 0 0
35 0 35 -80 0 -80 0 0 40 0 40 40 0 40 0 0 40 0 40 40 0 c39 0 40 1 40 33 0
42 -2 44 -45 39 -32 -4 -35 -7 -35 -38 0 -33 -1 -34 -40 -34 l-40 0 0 75 0 75
40 0 40 0 0 40 0 40 -40 0 -41 0 3 78 c3 74 4 77 28 78 47 1 50 4 50 38 0 33
2 35 38 38 35 3 37 5 40 41 l3 37 -40 0 -41 0 0 -40 0 -40 -154 0 -155 0 -3
-37 -3 -37 -112 3 -113 3 0 -41 0 -41 75 0 75 0 0 -40 0 -40 40 0 40 0 0 40 0
40 40 0 c40 0 40 0 40 -39 0 -38 1 -40 36 -43 l36 -3 1 -112 2 -113 37 0 c38
0 38 0 38 -40 0 -39 -1 -40 -35 -40 -30 0 -35 -3 -36 -25 -1 -14 -2 -31 -3
-37 -1 -9 -26 -14 -78 -16 l-78 -3 0 41 0 40 -40 0 -40 0 0 75 0 75 -39 0
c-33 0 -38 -3 -38 -22 -1 -45 -3 -48 -38 -48 l-35 0 0 75 0 75 35 0 c34 0 35
1 35 40 l0 40 -75 0 -75 0 0 81 0 81 -34 -4 c-29 -3 -35 0 -38 17 -8 41 2 55
38 55 33 0 34 1 34 40 l0 40 -75 0 -74 0 -3 -77 -3 -76 -75 0 -75 1 -3 36 c-3
36 -3 36 37 36 l41 0 0 40 0 40 -40 0 -40 0 0 -41 0 -40 -37 3 c-36 3 -38 5
-38 38 l0 35 -117 3 -118 3 0 -76z m1075 -85 c6 0 10 -16 10 -35 0 -34 -1 -35
-37 -35 -36 0 -38 1 -38 33 0 40 8 50 35 43 11 -3 25 -6 30 -6z m-765 -385 l0
-75 -38 0 -38 0 0 75 1 75 38 0 37 0 0 -75z m310 40 c0 -33 -2 -35 -33 -35
-42 0 -45 3 -39 40 4 27 8 30 38 30 32 0 34 -2 34 -35z m230 -189 l0 -75 -37
-3 c-21 -2 -39 -9 -39 -15 -1 -7 -2 -42 -3 -78 l-1 -65 -76 0 -75 0 3 -37 3
-38 73 -3 c71 -3 72 -3 73 -30 1 -15 1 -30 0 -34 0 -5 17 -8 39 -8 40 0 40 0
40 -39 0 -39 -1 -40 -37 -43 l-38 -3 -3 -72 -4 -73 41 0 41 0 0 -40 c0 -40 0
-40 -39 -40 -39 0 -39 0 -38 -37 2 -37 1 -38 -35 -41 -37 -3 -38 -4 -38 -42
l0 -39 -77 -3 -78 -3 2 -32 c2 -32 0 -33 -38 -33 -38 0 -39 1 -39 35 0 34 1
35 40 35 l40 0 0 80 0 80 36 0 c35 0 35 1 32 38 -3 34 -6 37 -35 40 -30 3 -33
6 -33 38 0 33 -1 34 -40 34 l-40 0 0 80 0 80 41 0 40 0 -2 73 -2 72 36 3 c36
3 37 4 37 43 0 39 0 39 40 39 l40 0 0 40 0 40 -40 0 c-39 0 -40 1 -40 34 0 33
2 35 38 38 35 3 37 5 40 41 l3 37 75 0 74 0 0 -74z m310 -41 c0 -33 -2 -35
-34 -35 -40 0 -50 11 -42 46 5 20 13 24 41 24 33 0 35 -2 35 -35z m-1230 -155
c0 -39 1 -40 35 -40 34 0 35 -1 35 -40 0 -39 -1 -40 -35 -40 -33 0 -35 -2 -35
-35 0 -34 -1 -35 -40 -35 l-40 0 0 -40 0 -40 40 0 40 0 0 -40 0 -40 -40 0
c-39 0 -40 -1 -40 -34 0 -33 2 -35 38 -38 35 -3 37 -5 40 -40 l3 -38 -40 0
-41 0 0 -40 0 -40 40 0 40 0 0 -40 0 -41 -77 3 -78 3 -3 78 -3 77 41 0 40 0 0
40 0 40 -40 0 c-39 0 -40 1 -40 35 0 33 -2 35 -35 35 -34 0 -35 1 -35 40 0 39
1 40 35 40 l35 0 0 75 0 75 80 0 80 0 0 40 0 40 -80 0 -80 0 0 40 0 40 80 0
80 0 0 -40z m1620 -235 l0 -115 -115 0 -115 0 0 40 0 40 -40 0 -40 0 0 40 0
40 40 0 40 0 0 -40 c0 -39 1 -40 35 -40 34 0 35 1 35 40 l0 40 40 0 c39 0 40
1 40 35 0 34 1 35 40 35 l40 0 0 -115z m230 5 l0 -40 -40 0 -40 0 0 40 0 40
40 0 40 0 0 -40z m-2162 -232 l3 -38 -40 0 -41 0 0 41 0 40 38 -3 c35 -3 37
-5 40 -40z m2082 -78 l0 -40 40 0 40 0 0 -75 0 -75 -80 0 -80 0 0 -40 c0 -39
-1 -40 -35 -40 -34 0 -35 1 -35 41 0 40 1 40 33 37 31 -3 32 -1 35 35 3 36 4
37 43 37 39 0 39 0 39 40 l0 40 -74 0 -75 0 -3 -37 c-3 -36 -5 -38 -40 -41
l-38 -3 0 40 0 41 40 0 40 0 0 40 0 40 75 0 75 0 0 -40z m-2080 -80 l0 -40 75
0 75 0 0 -35 c0 -33 -2 -35 -35 -35 -34 0 -35 -1 -35 -40 l0 -40 -40 0 -40 0
0 75 0 75 -40 0 c-39 0 -40 -1 -40 -35 0 -34 -1 -35 -40 -35 -39 0 -40 1 -40
35 0 34 1 35 40 35 l40 0 0 40 0 40 40 0 40 0 0 -40z m1850 -150 l0 -40 -40 0
-40 0 0 -40 0 -40 81 0 80 0 -3 -37 -3 -38 -152 -3 -153 -3 0 41 0 40 40 0 40
0 0 40 c0 39 1 40 35 40 33 0 35 2 35 33 0 42 5 47 47 47 32 0 33 -1 33 -40z
m-620 -160 l0 -40 40 0 40 0 0 -115 0 -115 40 0 40 0 0 -75 0 -75 35 0 c26 0
35 4 36 18 4 58 3 57 42 60 l37 3 0 -40 0 -40 78 -3 77 -3 3 -37 3 -38 -40 0
-41 0 0 -40 0 -40 41 0 40 0 -3 -37 c-3 -36 -5 -38 -40 -39 -38 -1 -38 -1 -38
37 0 39 0 39 -40 39 -39 0 -40 -1 -40 -34 0 -41 -6 -44 -106 -46 -106 -2 -124
5 -124 46 0 33 -1 34 -40 34 l-40 0 0 40 0 40 -40 0 -40 0 0 -40 c0 -39 -1
-40 -35 -40 -34 0 -35 1 -35 40 0 39 1 40 34 40 31 0 34 3 40 40 6 38 8 40 41
40 l35 0 0 155 0 155 -40 0 -40 0 0 75 0 75 40 0 40 0 0 -40z m698 -227 l3
-113 -116 0 -115 0 0 115 0 116 113 -3 112 -3 3 -112z m-308 -4 l0 -40 -37 3
c-36 3 -38 5 -41 41 l-3 37 40 0 41 0 0 -41z m460 -74 l0 -115 40 0 40 0 0 41
0 40 38 -3 c35 -3 37 -5 40 -40 l3 -38 -40 0 -41 0 0 -40 0 -40 -40 0 c-40 0
-40 0 -40 39 0 39 -1 40 -37 43 l-38 3 -3 113 -3 112 41 0 40 0 0 -115z
m-1390 0 c0 -34 -1 -35 -38 -35 -37 0 -38 1 -39 35 -1 34 0 35 38 35 38 0 39
-1 39 -35z m160 0 c0 -34 -1 -35 -40 -35 -39 0 -40 1 -40 35 0 34 1 35 40 35
39 0 40 -1 40 -35z"/>
<path d="M1180 1350 c0 -39 1 -40 35 -40 33 0 35 -2 35 -35 0 -34 1 -35 40
-35 39 0 40 1 40 35 0 34 -1 35 -40 35 l-40 0 0 40 c0 39 -1 40 -35 40 -34 0
-35 -1 -35 -40z"/>
<path d="M1250 1120 l0 -40 40 0 40 0 0 40 0 40 -40 0 -40 0 0 -40z"/>
<path d="M1480 270 l0 -40 40 0 40 0 0 40 0 40 -40 0 -40 0 0 -40z"/>
<path d="M1640 190 l0 -41 38 3 c35 3 37 5 36 38 0 33 -3 35 -37 38 l-37 3 0
-41z"/>
<path d="M2022 503 c3 -36 5 -38 41 -41 l37 -3 0 40 0 41 -41 0 -40 0 3 -37z"/>
<path d="M1402 2513 c3 -36 5 -38 41 -41 l37 -3 0 40 0 41 -41 0 -40 0 3 -37z"/>
<path d="M2020 2280 l0 -270 270 0 270 0 0 270 0 270 -270 0 -270 0 0 -270z
m468 -2 l-3 -193 -192 -3 -193 -2 0 195 0 195 195 0 195 0 -2 -192z"/>
<path d="M2180 2279 l0 -119 115 0 116 0 -3 118 -3 117 -112 1 -113 2 0 -119z"/>
<path d="M1870 2360 l0 -40 41 0 40 0 -3 37 c-3 36 -5 38 -40 41 l-38 2 0 -40z"/>
<path d="M1560 2045 c0 -34 1 -35 40 -35 39 0 40 1 40 35 0 34 -1 35 -40 35
-39 0 -40 -1 -40 -35z"/>
<path d="M2022 1893 c3 -36 5 -38 38 -38 33 0 35 2 38 38 l3 37 -41 0 -41 0 3
-37z"/>
<path d="M2490 1272 c0 -38 0 -38 35 -34 32 4 35 7 35 38 0 32 -2 34 -35 34
-34 0 -35 -1 -35 -38z"/>
<path d="M710 966 c0 -33 -2 -35 -37 -38 -36 -3 -38 -5 -41 -40 l-3 -38 -75 0
-74 0 0 -40 0 -40 -41 0 -40 0 3 -37 c3 -36 5 -38 41 -41 35 -3 37 -5 37 -38
l0 -34 75 0 75 0 0 -115 0 -115 40 0 40 0 0 115 0 115 -40 0 c-39 0 -40 1 -40
35 0 34 1 35 40 35 l40 0 0 121 0 120 38 -3 c35 -3 37 -5 40 -40 3 -37 5 -38
40 -38 37 0 38 1 37 38 0 36 1 37 38 40 35 3 37 5 37 38 l0 34 -115 0 -115 0
0 -34z m-80 -236 l0 -40 -75 0 -75 0 0 40 0 40 75 0 75 0 0 -40z"/>
<path d="M2490 810 c0 -39 1 -40 35 -40 34 0 35 1 35 40 0 39 -1 40 -35 40
-34 0 -35 -1 -35 -40z"/>
<path d="M790 694 l0 -75 38 3 c35 3 37 5 37 36 0 30 2 32 37 32 38 0 38 0 38
40 l0 40 -75 0 -75 0 0 -76z"/>
<path d="M20 270 l0 -270 270 0 270 0 0 270 0 270 -270 0 -270 0 0 -270z m460
-3 l0 -192 -192 0 -193 1 -3 192 -2 192 195 0 195 0 0 -193z"/>
<path d="M170 270 l0 -120 115 0 115 0 0 120 0 120 -115 0 -115 0 0 -120z"/>
<path d="M1100 40 c0 -40 0 -40 39 -40 38 0 38 0 37 38 -1 36 -2 37 -38 39
-38 2 -38 2 -38 -37z"/>
<path d="M2100 35 l0 -35 75 0 75 0 0 35 0 35 -75 0 -75 0 0 -35z"/>
</g>
</svg>
