<?xml version="1.0" standalone="no"?>
<!DOCTYPE svg PUBLIC "-//W3C//DTD SVG 20010904//EN"
 "http://www.w3.org/TR/2001/REC-SVG-20010904/DTD/svg10.dtd">
<svg version="1.0" xmlns="http://www.w3.org/2000/svg"
 width="814.000000pt" height="674.000000pt" viewBox="0 0 814.000000 674.000000"
 preserveAspectRatio="xMidYMid meet">

<g transform="translate(0.000000,674.000000) scale(0.100000,-0.100000)"
fill="#9C6421" stroke="none">
<path d="M3620 6649 c-534 -47 -1110 -247 -1540 -535 -65 -44 -65 -44 -31 -44
24 0 57 15 111 49 356 229 831 404 1275 471 180 28 549 38 731 21 713 -67
1388 -395 1925 -933 611 -613 929 -1378 929 -2235 0 -492 -109 -954 -327
-1387 -43 -86 -59 -127 -48 -122 9 3 21 6 25 6 12 0 128 242 178 370 215 557
267 1184 146 1779 -99 492 -316 951 -640 1356 -108 134 -365 393 -494 496
-521 417 -1101 657 -1713 708 -145 12 -386 12 -527 0z m597 -25 c-3 -3 -12 -4
-19 -1 -8 3 -5 6 6 6 11 1 17 -2 13 -5z m96 -11 c-7 -2 -19 -2 -25 0 -7 3 -2
5 12 5 14 0 19 -2 13 -5z m2704 -2765 c-3 -8 -6 -5 -6 6 -1 11 2 17 5 13 3 -3
4 -12 1 -19z m20 -570 c-3 -8 -6 -5 -6 6 -1 11 2 17 5 13 3 -3 4 -12 1 -19z
m-10 -150 c-3 -7 -5 -2 -5 12 0 14 2 19 5 13 2 -7 2 -19 0 -25z"/>
<path d="M4430 5399 c-209 -31 -406 -229 -531 -536 -67 -163 -110 -355 -134
-595 l-6 -66 -234 -181 c-338 -262 -462 -367 -625 -531 -283 -282 -390 -472
-390 -691 0 -94 15 -153 60 -237 156 -292 504 -373 925 -215 140 52 445 223
469 262 14 22 24 9 56 -71 18 -46 43 -104 56 -129 l23 -46 -20 -29 c-111 -163
-174 -401 -167 -634 l3 -115 -84 -42 c-116 -58 -229 -83 -377 -83 -139 0 -219
17 -320 65 -136 66 -231 164 -299 308 -27 59 -33 66 -45 52 -29 -35 102 -234
205 -312 152 -114 305 -158 519 -151 113 4 144 9 223 36 51 17 115 43 143 57
37 19 51 22 54 13 3 -7 14 -44 26 -83 69 -218 221 -399 414 -494 124 -61 190
-75 341 -75 113 1 139 4 203 26 125 45 223 123 285 228 27 47 57 146 57 190 0
20 -5 15 -24 -25 -107 -228 -351 -359 -580 -312 -42 9 -101 27 -131 41 -364
166 -505 739 -290 1182 163 337 464 534 813 534 242 0 439 -77 600 -233 171
-167 280 -377 313 -606 14 -99 7 -295 -15 -392 -70 -319 -273 -574 -545 -687
-96 -40 -250 -72 -403 -84 l-147 -12 267 -91 c316 -108 370 -129 782 -292 650
-258 917 -321 1249 -294 355 29 662 148 855 330 61 58 122 138 112 148 -3 3
-28 -15 -57 -40 -60 -52 -218 -138 -319 -172 -181 -62 -415 -91 -650 -82 -314
13 -486 52 -1160 262 -146 45 -352 109 -457 141 -180 54 -226 74 -170 74 12 0
56 9 96 20 267 74 465 213 606 425 205 308 239 682 94 1030 -86 207 -278 412
-482 516 -291 149 -714 169 -1023 50 -164 -63 -326 -175 -424 -293 -48 -57
-50 -59 -59 -36 -6 13 -28 68 -50 123 l-40 99 42 35 c151 126 311 299 515 559
239 303 388 385 589 323 74 -22 176 -82 233 -136 35 -33 35 -34 58 -15 l23 19
-67 55 c-195 161 -404 190 -584 81 -75 -45 -193 -170 -333 -351 -148 -191
-291 -349 -396 -439 -46 -38 -86 -71 -91 -73 -16 -6 -109 311 -150 513 -31
152 -59 383 -65 550 l-6 150 147 115 c644 505 890 810 871 1078 -15 199 -173
321 -377 291z m103 -63 c41 -17 91 -74 107 -121 38 -116 -70 -298 -320 -538
-106 -101 -487 -427 -509 -435 -10 -3 12 181 35 292 22 112 84 297 129 386
149 298 398 483 558 416z m-763 -1816 c25 -228 85 -503 158 -725 47 -140 53
-123 -77 -209 -192 -127 -414 -222 -597 -252 -84 -15 -111 -15 -184 -5 -219
31 -365 173 -378 367 -16 255 190 501 863 1032 l190 150 7 -127 c4 -69 12
-173 18 -231z"/>
<path d="M2680 5382 c-39 -14 -144 -17 -810 -22 -828 -7 -803 -5 -915 -63
-121 -61 -185 -153 -185 -263 0 -67 18 -129 51 -175 30 -43 40 -24 23 44 -39
148 65 300 245 359 61 20 91 22 404 26 l337 4 0 -864 c0 -482 -4 -880 -10
-902 -5 -22 -17 -51 -27 -65 -24 -32 -98 -71 -135 -71 -18 0 -28 -5 -28 -15 0
-13 39 -15 295 -15 256 0 295 2 295 15 0 10 -10 15 -33 15 -46 0 -118 39 -144
78 -12 18 -24 56 -28 85 -3 29 -5 430 -3 892 l3 840 230 3 c242 3 373 -8 413
-34 30 -20 61 -88 62 -136 0 -70 20 -39 22 35 6 155 3 247 -7 246 -5 -1 -30
-8 -55 -17z"/>
<path d="M560 3298 c-68 -156 -7 -516 134 -797 26 -51 45 -95 43 -97 -2 -3
-24 28 -47 68 -102 173 -183 263 -303 334 -84 51 -177 125 -230 184 -25 28
-53 50 -62 50 -15 0 -16 -7 -10 -52 9 -70 85 -298 134 -403 114 -243 260 -349
495 -360 l89 -5 77 -147 c42 -82 96 -179 119 -218 24 -38 46 -74 49 -80 3 -5
-20 14 -52 43 -87 78 -174 138 -268 181 -91 43 -376 133 -391 124 -5 -3 -7
-32 -4 -65 14 -157 165 -319 369 -398 99 -38 244 -56 347 -43 l73 10 69 -104
c38 -57 68 -103 65 -103 -2 0 -33 14 -69 31 -108 50 -247 49 -247 -2 0 -31 57
-49 153 -49 109 0 193 -22 220 -58 12 -15 47 -54 79 -88 32 -33 58 -63 58 -66
0 -3 -28 9 -62 27 -175 93 -308 110 -598 75 -102 -12 -186 -23 -189 -25 -8 -9
106 -140 163 -188 76 -63 197 -120 312 -148 76 -18 109 -20 229 -16 151 5 217
20 279 62 l37 25 89 -72 c49 -40 88 -73 87 -74 -1 -1 -44 3 -95 8 -131 15
-252 -12 -252 -57 0 -45 91 -43 195 4 l66 30 73 -14 c60 -11 86 -22 139 -61
36 -27 65 -49 63 -51 -1 -2 -29 2 -62 8 -93 17 -421 -26 -431 -58 -5 -15 43
-30 140 -43 156 -20 289 -9 370 32 l38 19 59 -36 c33 -20 60 -38 60 -41 0 -2
-20 -1 -44 2 -109 15 -506 -60 -506 -96 0 -19 204 -91 296 -105 88 -13 214 27
308 100 l49 37 156 -75 c189 -92 241 -113 410 -171 516 -177 1049 -228 1543
-147 59 9 110 20 113 23 8 8 -6 39 -15 33 -4 -2 -63 -14 -131 -25 -160 -27
-508 -38 -699 -21 -414 36 -842 157 -1211 341 -103 52 -117 62 -132 97 -27 63
-29 80 -16 142 10 53 9 64 -5 86 -21 32 -44 32 -52 -1 -8 -33 3 -134 22 -186
8 -23 13 -43 10 -45 -2 -2 -40 20 -84 49 -44 29 -89 58 -98 64 -16 9 -15 15
18 70 90 147 75 302 -46 460 -25 34 -53 65 -62 68 -21 8 -59 -76 -75 -167 -13
-74 -3 -175 26 -258 25 -69 5 -42 -45 64 -87 182 -102 308 -50 419 34 72 36
85 14 116 -15 22 -17 22 -35 7 -27 -26 -42 -116 -36 -230 6 -128 28 -212 87
-333 27 -53 47 -98 46 -99 -4 -4 -260 204 -290 236 l-29 30 18 48 c10 26 35
87 57 135 51 115 63 178 48 251 -13 63 -57 156 -96 202 l-25 30 -35 -40 c-73
-81 -115 -200 -117 -323 0 -42 5 -94 12 -115 21 -62 6 -52 -33 22 -43 82 -74
196 -77 278 -1 47 5 71 31 126 26 55 31 76 27 110 -6 42 -38 81 -61 74 -18 -6
-55 -67 -67 -111 -11 -39 -7 -209 7 -296 4 -29 -11 -10 -85 102 l-90 138 13
44 c8 25 37 82 65 128 65 107 79 169 62 280 -21 137 -27 139 -82 25 -41 -86
-78 -233 -80 -317 -1 -43 -1 -44 -10 -15 -5 17 -14 81 -20 142 -10 104 -9 118
10 180 17 56 27 72 57 92 61 42 153 151 190 227 46 91 63 201 45 286 -7 32
-16 60 -21 63 -18 11 -88 -35 -138 -89 -97 -107 -144 -224 -160 -401 -7 -81
-9 -86 -16 -50 -47 256 -73 358 -89 352 -9 -3 -12 -63 -11 -228 1 -188 4 -241
22 -331 12 -59 25 -114 28 -122 3 -9 3 -16 -1 -16 -12 0 -133 265 -160 352
l-27 86 36 74 c59 119 66 221 30 428 -33 191 -99 324 -202 407 -29 24 -57 43
-61 43 -5 0 -19 -24 -31 -52z m63 -95 c40 -149 75 -363 86 -520 5 -77 14 -151
21 -163 6 -11 10 -29 8 -38 -4 -20 -84 167 -121 283 -40 124 -59 231 -60 340
-1 94 16 195 33 195 4 0 19 -44 33 -97z m80 22 c42 -53 84 -149 114 -261 21
-83 26 -122 27 -239 1 -146 -12 -209 -54 -265 -16 -21 -17 -20 -34 52 -10 40
-22 132 -27 203 -8 125 -38 308 -79 483 -11 46 -20 86 -20 88 0 11 48 -29 73
-61z m-348 -427 c132 -85 214 -173 306 -330 40 -68 79 -134 88 -148 17 -27
-194 166 -344 315 -50 50 -120 128 -155 175 -35 47 -67 84 -71 83 -5 -2 -6 3
-3 11 3 8 1 17 -5 21 -6 3 -11 11 -11 18 0 6 21 -9 48 -35 26 -25 92 -75 147
-110z m-171 60 c85 -123 189 -234 389 -420 l197 -183 -61 -3 c-41 -2 -84 4
-128 17 -190 58 -305 199 -409 501 -67 196 -66 199 12 88z m1154 -172 c-5
-125 -46 -212 -148 -320 -40 -42 -75 -74 -77 -72 -7 7 133 368 174 450 30 59
37 67 45 52 6 -10 9 -59 6 -110z m-74 72 c-25 -48 -184 -458 -184 -474 0 -8
-4 -14 -10 -14 -12 0 -12 -7 0 106 12 117 40 206 88 280 68 105 147 181 106
102z m-286 -325 c29 -149 52 -322 52 -396 0 -34 5 -91 10 -126 6 -35 9 -66 6
-68 -6 -6 -42 114 -68 230 -15 67 -23 143 -27 280 -3 103 -3 187 0 187 3 0 16
-48 27 -107z m218 -280 c-4 -9 -11 -63 -17 -120 -9 -101 -41 -213 -60 -213
-12 0 -11 30 5 133 17 101 53 217 68 217 6 0 7 -8 4 -17z m19 -168 l-15 -40 4
80 c3 44 9 96 13 115 7 30 8 23 11 -40 2 -50 -2 -88 -13 -115z m-828 70 c33
-50 144 -138 232 -184 42 -21 135 -58 206 -81 142 -47 192 -69 244 -108 31
-23 33 -26 15 -33 -40 -16 -219 -9 -298 11 -220 56 -401 221 -430 393 -8 46 2
47 31 2z m258 -44 c114 -43 226 -115 340 -220 50 -46 54 -61 8 -38 -15 8 -92
36 -170 62 -81 27 -175 66 -217 91 -70 41 -206 156 -206 174 0 9 152 -34 245
-69z m730 -234 c0 -31 -6 -62 -13 -69 -9 -9 -12 3 -12 61 0 54 3 72 13 68 8
-2 12 -24 12 -60z m-50 -130 c1 -114 5 -166 18 -209 20 -65 20 -71 7 -63 -18
11 -48 131 -55 221 -7 86 7 204 23 204 4 0 7 -69 7 -153z m241 -157 c-9 -71
-16 -182 -16 -247 l0 -118 -20 30 c-84 125 -76 352 17 489 l28 41 3 -33 c2
-19 -4 -92 -12 -162z m99 113 c41 -84 45 -176 12 -263 -46 -121 -91 -220 -99
-220 -13 0 -9 199 6 327 8 65 18 144 21 176 8 69 18 66 60 -20z m-554 -149
c81 -24 82 -34 4 -34 -136 0 -201 41 -79 49 11 0 45 -6 75 -15z m714 -73 c-8
-17 -17 -31 -19 -31 -6 0 10 76 20 91 17 26 16 -27 -1 -60z m-608 -122 c110
-34 330 -155 313 -173 -5 -4 -79 8 -275 45 -147 27 -348 50 -359 39 -12 -12
17 -18 135 -29 58 -6 128 -15 155 -21 27 -6 125 -24 218 -40 220 -38 235 -50
134 -99 -186 -90 -487 -59 -695 71 -66 41 -213 190 -194 196 6 2 79 12 163 22
181 23 306 19 405 -11z m773 -197 c0 -136 4 -204 15 -246 17 -63 13 -87 -6
-40 -77 197 -88 320 -39 448 23 61 30 23 30 -162z m67 106 c55 -90 67 -127 67
-209 1 -67 -3 -83 -33 -142 -19 -37 -37 -67 -41 -67 -20 0 -35 126 -35 292 0
98 2 178 5 178 3 0 20 -24 37 -52z m-457 -350 c-48 -23 -108 -29 -111 -13 -3
18 45 35 101 34 l55 -1 -45 -20z m660 -48 c0 -16 -4 -30 -10 -30 -5 0 -10 14
-10 30 0 17 5 30 10 30 6 0 10 -13 10 -30z m-269 -85 c23 -15 -56 -37 -147
-42 -101 -6 -284 5 -284 16 0 4 42 15 93 24 93 16 312 17 338 2z m169 -123 c0
-15 -130 -33 -295 -42 -213 -11 -219 -5 -25 25 58 9 112 18 120 19 34 8 200 5
200 -2z m40 -43 c-19 -16 -64 -44 -100 -62 -58 -29 -73 -32 -155 -32 -85 0
-136 11 -222 47 -27 11 -26 12 32 19 33 4 110 7 170 8 97 1 255 28 273 46 3 3
12 5 21 5 11 -1 4 -11 -19 -31z m1527 -395 c-3 -3 -12 -4 -19 -1 -8 3 -5 6 6
6 11 1 17 -2 13 -5z m386 -1 c-7 -2 -21 -2 -30 0 -10 3 -4 5 12 5 17 0 24 -2
18 -5z"/>
</g>
</svg>
