<?xml version="1.0" encoding="utf-8"?>
<!-- Generator: Adobe Illustrator 23.0.2, SVG Export Plug-In . SVG Version: 6.00 Build 0)  -->
<svg version="1.1" xmlns="http://www.w3.org/2000/svg" xmlns:xlink="http://www.w3.org/1999/xlink" x="0px" y="0px"
	 viewBox="0 0 326.16 51.98" style="enable-background:new 0 0 326.16 51.98;" xml:space="preserve">
<style type="text/css">
	.st0{fill:#F9F9F9;}
	.st1{fill:#F0F0F0;}
</style>
<g id="BACKGROUND">
</g>
<g id="OBJECTS">
	<g>
		<path class="st1" d="M160.66,49.02c-0.9-0.86-1.74-1.83-2.57-2.76c-1.69-1.89-3.23-3.91-4.62-6.02
			c-2.23-3.38-4.12-7.08-5.52-10.91c2.41,1.52,4.63,3.34,6.55,5.41c1.37,1.48,2.7,3.02,3.92,4.63c0.08,0.11,0.23,0.02,0.18-0.1
			c-1.6-3.5-4.06-6.38-6.9-8.96c-1.42-1.29-2.96-2.45-4.6-3.48c-0.04-0.13-0.08-0.25-0.12-0.38c-1.4-4.71-1.69-10.29,1.59-14.32
			c2.55-3.14,7.37-4.4,10.75-1.79c2.23,1.72,2.95,5.08,0.37,6.86c-2.35,1.62-5.04,0.09-6.19-2.2c-0.15-0.31-0.7-0.17-0.67,0.18
			c0.25,2.39,2.53,4.14,4.91,4.08c2.47-0.05,4.69-2.04,5.06-4.47c0.41-2.73-1.12-5.5-3.44-6.88c-2.15-1.29-4.82-1.58-7.24-0.99
			c-5.57,1.35-8.51,7.45-8.64,12.75c-0.05,1.83,0.17,3.66,0.56,5.46c-0.58-0.29-1.16-0.57-1.76-0.82
			c-3.48-1.49-7.18-2.57-10.97-2.82c-4.71-0.32-9.45,0.4-14,1.6c-1.38,0.36-2.74,0.77-4.09,1.22c-1.93-0.19-3.88-0.31-5.83-0.34
			c-6.17-0.09-12.37,0.54-18.39,1.92c-5.94,1.37-11.67,3.45-17.32,5.71c-7.63,3.06-15.18,6.46-22.99,9.02
			c-2.39-0.78-4.7-1.84-6.88-3.21c-6-3.8-10.23-9.93-10.63-17.13c-0.35-6.26,2.15-13.11,7.96-16.15c4.9-2.57,11.55-1.96,15.91,1.46
			c2.61,2.05,4.04,5.02,4.33,8.31c0.35,4.09-0.27,8.87-3.7,11.57c-2.94,2.31-6.95,2.57-10.06,0.45c-2.99-2.04-4.39-5.97-3.06-9.38
			c0.67-1.72,1.92-3.16,3.53-4.06c0.43-0.24,0.05-0.88-0.39-0.66c-3.2,1.59-5.24,5.39-4.9,8.95c0.36,3.74,3.22,6.83,6.72,8
			c3.75,1.25,7.97-0.1,10.64-2.93c3.11-3.3,3.74-8.51,3.25-12.85c-0.4-3.5-1.91-6.7-4.63-8.99c-2.41-2.03-5.4-3.3-8.51-3.75
			c-3.18-0.46-6.47-0.16-9.45,1.08c-3.26,1.36-5.9,3.82-7.7,6.85c-3.83,6.46-3.67,14.88-0.33,21.5c2.82,5.6,7.89,9.71,13.58,12.27
			c-2.35,0.66-4.72,1.22-7.14,1.66c-5.81,1.06-11.87,1.38-17.72,0.35c-5.3-0.94-11.57-2.85-14.89-7.42
			c-1.53-2.1-2.52-4.86-1.92-7.47c0.52-2.26,2.02-4.25,4.21-5.1c2.05-0.8,4.48-0.1,5.91,1.54c1.68,1.93,1.04,4.73-0.92,6.21
			c-0.94,0.71-2.21,1.08-3.38,0.87c-0.43-0.08-0.58,0.49-0.18,0.64c2.24,0.86,4.53-0.41,5.76-2.32c1.31-2.02,1.07-4.5-0.37-6.38
			c-1.4-1.82-3.8-2.92-6.1-2.8c-2.63,0.14-4.88,1.83-6.24,4.02C-1.89,31,1.07,37.58,5.55,41.09c4.96,3.88,11.64,5.47,17.81,5.96
			c8.59,0.68,17.03-0.99,25.19-3.58c0.27,0.08,0.54,0.17,0.82,0.25c19.4,5.41,38.02-5.6,55.2-13.05c3.28-1.42,6.63-2.76,10.04-3.84
			c1.42,0.1,2.83,0.23,4.24,0.38c6.7,0.74,13.33,1.83,19.83,3.65c1.62,0.46,3.23,0.94,4.84,1.46c0.23,0.07,0.32-0.27,0.1-0.35
			c-7.59-2.74-15.36-5.23-23.31-6.69c4.26-0.93,8.62-1.36,13.06-0.96c3.91,0.35,7.76,1.46,11.31,3.19c1.11,3.57,2.86,7,4.73,10.1
			c0.56,0.92,1.16,1.83,1.79,2.72c-2.98-2.33-6.81-3.66-10.57-3.51c-0.74,0.03-1.48,0.13-2.2,0.3c-1.49-1.43-3.3-2.53-5.23-3.25
			c-2.32-0.86-5.15-1.32-7.58-0.7c-1.26,0.32-2.55,1.08-3.18,2.26c-0.51,0.96-0.76,2.38-0.4,3.43c0.86,2.52,4.91,3.08,5.82,0.33
			c0.34-1.03-0.94-1.49-1.63-0.95c-0.51,0.4-1.11,0.77-1.79,0.66c-0.8-0.13-1.22-0.98-1.11-1.75c0.29-1.89,2.52-2.57,4.15-2.68
			c3.32-0.21,6.65,1.07,9.15,3.25c-1.16,0.55-2.18,1.37-2.87,2.55c-1.32,2.28-0.96,5.13,1.25,6.69c2.1,1.47,4.85,0.67,5.96-1.61
			c1.13-2.33,0.25-4.83-1.23-6.77c0.69-0.15,1.41-0.23,2.13-0.25c4.48-0.1,8.63,1.94,11.53,5.32c0.11,0.13,0.26,0.14,0.39,0.09
			c0.52,0.63,1.06,1.26,1.61,1.87c1.11,1.24,2.26,2.5,3.53,3.57c1.19,1.01,2.33,2.39,3.87,2.79c0.2,0.05,0.35-0.16,0.26-0.34
			C162.51,50.54,161.53,49.85,160.66,49.02z M64.48,42.1c-3.66,0.37-7.36,0.29-10.96-0.33c2.64-0.96,5.25-1.98,7.82-3.03
			c12.18-4.97,24.36-10.49,37.6-11.8c2.68-0.26,5.39-0.39,8.09-0.4C92.98,32.23,79.8,40.56,64.48,42.1z M139.42,43.93
			c-0.59,1.54-2.29,2.14-3.51,0.88c-1.27-1.32-0.7-3.3,0.46-4.48c0.49-0.5,1.06-0.87,1.66-1.17
			C139.12,40.46,140.07,42.23,139.42,43.93z"/>
		<path class="st1" d="M128.44,16.38c3.88-0.81,8.07,0.01,11.35,2.22c-1.46-3.88-0.62-8.79,2.14-11.89
			c-2.36-0.16-4.73,0.79-5.84,2.88c-2.42-2.64-3.97-6.05-4.38-9.6c-2.27,3.75-1.87,8.93,0.94,12.3
			C130.54,12.37,129.48,14.54,128.44,16.38z"/>
		<path class="st1" d="M115.91,18.01c5.43,0,5.44-8.44,0-8.44C110.48,9.57,110.47,18.01,115.91,18.01z"/>
		<path class="st1" d="M102.95,18.34c3.99,0,4-6.21,0-6.21C98.96,12.13,98.96,18.34,102.95,18.34z"/>
		<path class="st1" d="M324.75,25.71c-1.36-2.19-3.61-3.88-6.24-4.02c-2.3-0.12-4.7,0.98-6.1,2.8c-1.44,1.88-1.68,4.36-0.37,6.38
			c1.24,1.91,3.53,3.18,5.76,2.32c0.4-0.15,0.25-0.72-0.18-0.64c-1.17,0.21-2.44-0.16-3.38-0.87c-1.96-1.48-2.6-4.27-0.92-6.21
			c1.43-1.64,3.86-2.34,5.91-1.54c2.19,0.86,3.69,2.84,4.21,5.1c0.6,2.61-0.39,5.37-1.92,7.47c-3.32,4.56-9.58,6.48-14.89,7.42
			c-5.84,1.03-11.9,0.71-17.72-0.35c-2.42-0.44-4.79-1.01-7.14-1.66c5.69-2.55,10.76-6.67,13.58-12.27
			c3.34-6.61,3.5-15.04-0.33-21.5c-1.8-3.03-4.43-5.49-7.7-6.85c-2.98-1.24-6.27-1.54-9.45-1.08c-3.11,0.45-6.1,1.72-8.51,3.75
			c-2.72,2.29-4.23,5.49-4.63,8.99c-0.5,4.34,0.13,9.55,3.25,12.85c2.67,2.83,6.89,4.18,10.64,2.93c3.5-1.17,6.37-4.26,6.72-8
			c0.34-3.56-1.7-7.36-4.9-8.95c-0.44-0.22-0.82,0.42-0.39,0.66c1.61,0.89,2.86,2.34,3.53,4.06c1.33,3.42-0.07,7.34-3.06,9.38
			c-3.11,2.12-7.12,1.86-10.06-0.45c-3.43-2.7-4.05-7.48-3.7-11.57c0.28-3.29,1.72-6.25,4.33-8.31c4.36-3.43,11-4.03,15.91-1.46
			c5.81,3.05,8.31,9.89,7.96,16.15c-0.4,7.2-4.63,13.33-10.63,17.13c-2.17,1.38-4.48,2.43-6.88,3.21
			c-7.81-2.56-15.35-5.97-22.99-9.02c-5.65-2.26-11.39-4.34-17.32-5.71c-6.02-1.39-12.22-2.01-18.39-1.92
			c-1.95,0.03-3.9,0.15-5.83,0.34c-1.35-0.44-2.71-0.85-4.09-1.22c-4.55-1.2-9.29-1.92-14-1.6c-3.79,0.26-7.49,1.33-10.97,2.82
			c-0.59,0.25-1.18,0.53-1.76,0.82c0.39-1.8,0.61-3.63,0.56-5.46c-0.13-5.3-3.07-11.4-8.64-12.75c-2.42-0.59-5.09-0.29-7.24,0.99
			c-2.32,1.39-3.85,4.16-3.44,6.88c0.37,2.43,2.59,4.41,5.06,4.47c2.38,0.05,4.66-1.69,4.91-4.08c0.04-0.35-0.51-0.49-0.67-0.18
			c-1.15,2.29-3.84,3.82-6.19,2.2c-2.58-1.78-1.86-5.14,0.37-6.86c3.38-2.61,8.21-1.34,10.75,1.79c3.28,4.04,2.99,9.62,1.59,14.32
			c-0.04,0.13-0.08,0.25-0.12,0.38c-1.63,1.03-3.18,2.19-4.6,3.48c-2.84,2.58-5.29,5.46-6.9,8.96c-0.06,0.12,0.1,0.21,0.18,0.1
			c1.22-1.6,2.55-3.15,3.92-4.63c1.92-2.07,4.14-3.89,6.55-5.41c-1.41,3.83-3.3,7.52-5.52,10.91c-1.39,2.12-2.94,4.13-4.62,6.02
			c-0.83,0.93-1.67,1.9-2.57,2.76c-0.87,0.83-1.85,1.52-2.4,2.61c-0.09,0.18,0.06,0.39,0.26,0.34c1.54-0.41,2.68-1.79,3.87-2.79
			c1.27-1.07,2.42-2.33,3.53-3.57c0.55-0.61,1.08-1.23,1.61-1.87c0.13,0.05,0.28,0.03,0.39-0.09c2.9-3.38,7.05-5.42,11.53-5.32
			c0.72,0.02,1.43,0.09,2.13,0.25c-1.48,1.94-2.36,4.44-1.23,6.77c1.11,2.28,3.86,3.08,5.96,1.61c2.22-1.55,2.58-4.41,1.25-6.69
			c-0.69-1.18-1.7-2-2.87-2.55c2.5-2.18,5.83-3.46,9.15-3.25c1.63,0.1,3.86,0.78,4.15,2.68c0.12,0.77-0.31,1.61-1.11,1.75
			c-0.67,0.11-1.27-0.26-1.79-0.66c-0.69-0.54-1.98-0.08-1.63,0.95c0.92,2.75,4.96,2.19,5.82-0.33c0.36-1.05,0.11-2.47-0.4-3.43
			c-0.63-1.18-1.91-1.94-3.18-2.26c-2.43-0.62-5.27-0.16-7.58,0.7c-1.93,0.72-3.74,1.82-5.23,3.25c-0.72-0.17-1.47-0.27-2.2-0.3
			c-3.76-0.15-7.59,1.18-10.57,3.51c0.62-0.89,1.23-1.79,1.79-2.72c1.87-3.09,3.62-6.52,4.73-10.1c3.55-1.73,7.41-2.84,11.31-3.19
			c4.45-0.39,8.8,0.03,13.06,0.96c-7.95,1.46-15.72,3.95-23.31,6.69c-0.22,0.08-0.13,0.43,0.1,0.35c1.6-0.52,3.22-1,4.84-1.46
			c6.49-1.83,13.13-2.91,19.83-3.65c1.41-0.16,2.82-0.28,4.24-0.38c3.41,1.09,6.76,2.42,10.04,3.84
			c17.18,7.45,35.79,18.46,55.2,13.05c0.27-0.08,0.55-0.16,0.82-0.25c8.16,2.59,16.61,4.26,25.19,3.58
			c6.17-0.49,12.85-2.08,17.81-5.96C325.09,37.58,328.05,31,324.75,25.71z M188.12,39.16c0.6,0.29,1.16,0.67,1.66,1.17
			c1.17,1.18,1.74,3.16,0.46,4.48c-1.22,1.26-2.92,0.67-3.51-0.88C186.08,42.23,187.04,40.46,188.12,39.16z M261.68,42.1
			c-15.32-1.54-28.5-9.87-42.55-15.55c2.71,0.01,5.41,0.13,8.09,0.4c13.24,1.3,25.42,6.83,37.6,11.8c2.57,1.05,5.18,2.07,7.82,3.03
			C269.04,42.39,265.34,42.47,261.68,42.1z"/>
		<path class="st1" d="M186.36,18.61c3.29-2.21,7.48-3.03,11.35-2.22c-1.04-1.85-2.1-4.01-4.22-4.08c2.81-3.37,3.21-8.54,0.94-12.3
			c-0.4,3.55-1.96,6.97-4.38,9.6c-1.11-2.1-3.48-3.05-5.84-2.88C186.98,9.82,187.83,14.73,186.36,18.61z"/>
		<path class="st1" d="M210.24,18.01c5.44,0,5.43-8.44,0-8.44C204.8,9.57,204.81,18.01,210.24,18.01z"/>
		<path class="st1" d="M223.2,18.34c4,0,3.99-6.21,0-6.21C219.2,12.13,219.21,18.34,223.2,18.34z"/>
	</g>
</g>
</svg>
